<?xml version="1.0" standalone="no"?>
<!DOCTYPE svg PUBLIC "-//W3C//DTD SVG 20010904//EN"
 "http://www.w3.org/TR/2001/REC-SVG-20010904/DTD/svg10.dtd">
<svg version="1.0" xmlns="http://www.w3.org/2000/svg"
 width="720.000000pt" height="720.000000pt" viewBox="0 0 720.000000 720.000000"
 preserveAspectRatio="xMidYMid meet">
<metadata>
Created by potrace 1.16, written by Peter Selinger 2001-2019
</metadata>
<g transform="translate(0.000000,720.000000) scale(0.100000,-0.100000)"
fill="#000000" stroke="none">
<path d="M4265 7143 c-22 -1 -107 -9 -190 -18 -82 -8 -195 -19 -250 -25 -91
-8 -209 -40 -275 -72 -40 -20 -129 -90 -225 -178 -100 -91 -124 -109 -151
-114 -11 -3 -56 -18 -102 -35 -46 -17 -88 -31 -94 -31 -15 0 -3 124 17 181 9
24 34 77 56 118 l41 74 -48 -34 c-71 -50 -303 -285 -349 -354 -22 -33 -55 -89
-75 -125 -25 -46 -42 -66 -58 -68 -12 -2 -22 -10 -22 -17 0 -9 -45 -28 -123
-54 -316 -103 -466 -157 -459 -167 24 -38 142 -64 301 -67 l108 -2 -81 -49
c-199 -120 -252 -154 -317 -206 -77 -62 -209 -213 -238 -275 -40 -83 -32 -87
19 -10 133 203 215 278 481 436 109 65 166 104 158 109 -8 6 -7 9 6 11 10 2
-44 5 -120 6 -138 2 -230 15 -273 37 -21 11 -13 16 100 53 68 23 203 68 301
102 98 33 203 65 233 70 75 14 105 32 42 25 l-46 -5 5 33 c12 80 89 185 260
357 79 79 143 140 143 137 0 -4 -13 -32 -29 -64 -38 -76 -61 -155 -61 -213 0
-62 5 -73 46 -104 18 -14 31 -20 28 -12 -3 9 10 20 40 31 74 28 155 87 276
201 200 188 284 231 503 260 30 4 47 2 47 -4 0 -6 -6 -11 -13 -11 -44 0 -262
-188 -330 -285 -18 -26 -14 -24 25 11 47 44 77 55 244 95 80 19 109 21 289 16
134 -3 218 -10 255 -20 229 -64 293 -88 407 -157 37 -23 117 -65 177 -94 188
-89 405 -227 507 -321 l37 -34 18 22 c10 12 12 16 4 10 -8 -7 -18 -13 -23 -13
-5 0 -5 6 1 13 9 11 17 64 12 77 -5 13 -11 70 -7 70 17 0 136 -202 139 -235 0
-5 7 -30 14 -55 8 -25 13 -56 13 -70 -1 -17 -3 -19 -6 -7 -2 9 -9 17 -14 17
-5 0 -9 8 -9 18 0 12 -2 14 -8 4 -5 -7 -6 -27 -4 -45 3 -17 7 -27 9 -20 2 7
11 9 19 6 7 -3 11 -10 7 -16 -4 -6 -8 -20 -9 -31 -6 -56 -15 -86 -34 -122 -31
-56 -36 -59 -62 -34 -38 37 -251 195 -283 211 -16 9 -39 20 -50 26 -17 9 -70
28 -310 108 -60 20 23 -18 110 -50 192 -72 347 -163 470 -277 l68 -63 -94 -67
c-52 -37 -121 -81 -154 -97 -70 -34 -181 -53 -246 -41 -53 10 -302 106 -388
149 -33 17 -61 29 -61 26 0 -2 66 -38 148 -79 225 -115 339 -211 500 -419 46
-59 148 -171 228 -249 99 -97 141 -145 134 -152 -7 -7 -17 -7 -31 2 -11 7 -24
10 -28 7 -5 -2 -53 6 -107 19 -55 13 -118 27 -141 30 -50 7 -170 76 -263 149
-36 29 -99 78 -140 109 -41 31 -120 102 -175 157 -54 55 -101 98 -103 96 -2
-2 36 -51 85 -110 48 -59 96 -118 105 -132 55 -85 149 -158 298 -233 143 -72
237 -138 209 -148 -5 -2 -6 -8 -3 -14 9 -14 -16 -58 -33 -58 -7 0 -13 -5 -13
-11 0 -5 -3 -8 -7 -6 -5 3 -17 1 -27 -3 -14 -4 -44 6 -95 34 -42 23 -89 48
-106 56 -16 8 -32 17 -35 20 -11 11 -97 48 -125 54 -24 5 -19 0 24 -26 139
-82 319 -327 337 -460 4 -23 12 -59 20 -80 7 -21 16 -82 20 -136 5 -88 4 -102
-17 -147 -13 -27 -23 -55 -24 -62 -1 -29 -15 -23 -16 8 0 41 -6 29 -40 -79
-12 -40 -40 -103 -62 -140 -61 -102 -192 -267 -250 -315 -69 -56 -125 -114
-166 -172 l-35 -48 33 19 c19 10 38 27 44 36 9 14 14 7 24 -43 l12 -60 -52
-55 c-64 -69 -111 -134 -144 -199 -14 -27 -43 -75 -66 -105 -27 -38 -32 -47
-14 -31 l26 23 3 -38 3 -39 17 47 c9 26 35 74 58 108 42 62 170 204 177 197 4
-5 -26 -88 -87 -235 -35 -86 -43 -122 -52 -210 -13 -139 2 -294 42 -432 16
-58 30 -114 30 -126 0 -30 -102 -108 -395 -303 -137 -92 -293 -196 -345 -232
-169 -118 -156 -114 -375 -114 -158 0 -200 3 -252 19 -73 22 -124 61 -164 125
-40 63 -37 38 4 -29 34 -58 100 -111 165 -131 20 -7 121 -15 224 -18 l187 -6
-80 -95 c-43 -52 -88 -103 -99 -112 -29 -24 -122 -33 -207 -20 -67 11 -75 15
-115 58 -109 117 -150 216 -151 364 0 85 3 102 28 153 35 70 108 147 167 176
27 12 75 24 121 27 42 4 77 11 77 16 0 12 -157 -2 -204 -18 -50 -18 -126 -75
-160 -119 -67 -87 -87 -195 -62 -333 21 -118 57 -173 253 -388 46 -51 83 -96
83 -102 0 -5 -25 -61 -55 -123 -74 -153 -70 -183 6 -40 65 125 156 256 214
311 21 19 69 77 107 128 39 51 84 104 102 117 61 48 405 281 616 418 207 134
337 230 447 329 28 26 103 83 165 127 106 76 214 163 158 128 -14 -9 -54 -31
-90 -50 -36 -18 -125 -75 -199 -125 -73 -51 -135 -92 -137 -92 -2 0 -12 28
-23 63 -24 78 -44 233 -39 312 3 53 6 60 25 63 15 2 25 14 33 36 l11 34 97
-39 c53 -21 98 -36 100 -34 2 2 -9 20 -24 41 -24 31 -28 44 -26 92 1 31 5 58
8 61 3 3 17 -9 32 -26 26 -30 214 -175 219 -169 2 1 -8 38 -21 82 -25 84 -40
164 -31 164 3 0 34 -14 68 -31 34 -18 112 -53 172 -79 180 -78 227 -102 218
-110 -4 -4 -66 -56 -138 -115 -71 -60 -206 -177 -300 -260 -93 -83 -215 -187
-270 -230 -140 -111 -367 -341 -448 -455 -37 -52 -102 -165 -144 -250 l-77
-154 -141 -146 c-122 -126 -147 -157 -185 -234 -34 -66 -58 -100 -95 -131 -81
-69 -194 -146 -284 -194 -93 -49 -272 -122 -283 -114 -4 2 -15 30 -25 61 l-16
57 -16 -37 c-19 -46 -34 -48 -51 -7 -7 17 -45 83 -83 147 -137 230 -207 357
-202 370 3 7 1 11 -3 8 -5 -3 -16 12 -25 33 -9 20 -74 97 -144 171 -213 221
-239 275 -231 470 7 163 37 223 166 331 l31 26 35 -56 c19 -31 66 -95 104
-143 38 -48 79 -99 91 -115 42 -54 2 16 -79 137 -42 63 -88 135 -103 160 l-26
46 43 55 c91 116 258 203 519 270 107 28 116 27 192 -10 l64 -32 21 -72 c55
-187 75 -250 112 -352 51 -138 67 -159 26 -34 -23 71 -32 119 -36 196 l-5 102
78 73 c127 119 194 168 376 273 97 56 195 121 223 148 l51 48 -75 -49 c-138
-92 -421 -234 -550 -278 -70 -23 -180 -23 -235 1 -22 9 -89 44 -150 78 -340
187 -589 415 -706 649 -22 43 -39 80 -39 83 0 3 26 5 58 6 l57 1 -80 17 c-99
21 -133 39 -179 93 -37 43 -49 75 -62 161 -5 41 -9 48 -25 44 -11 -3 -22 -1
-25 4 -3 5 -9 7 -14 4 -5 -3 -25 18 -44 47 -58 89 -81 237 -55 360 20 94 102
231 186 310 46 43 141 62 318 61 147 -1 205 -9 212 -29 6 -19 -73 -94 -105
-100 -18 -4 -32 -10 -32 -14 0 -12 106 -30 137 -23 15 3 38 7 51 7 12 1 22 5
22 10 0 5 -19 6 -41 2 l-42 -7 34 32 c39 36 78 64 83 58 2 -2 15 -40 30 -84
31 -90 65 -148 98 -166 19 -10 17 -5 -9 25 -36 40 -46 69 -13 36 34 -34 42
-22 11 18 -27 34 -48 85 -65 154 -7 30 6 37 58 34 26 -2 30 -8 43 -57 30 -120
108 -242 238 -372 74 -75 167 -131 235 -143 l35 -7 -38 29 c-68 53 -150 197
-172 304 -7 33 -5 32 43 -31 28 -36 74 -87 104 -113 56 -50 190 -122 248 -133
l34 -6 -36 44 c-98 121 -113 190 -79 354 11 55 27 123 36 152 15 49 17 51 63
62 147 34 375 51 412 31 92 -49 278 -210 308 -267 11 -21 10 -21 -76 4 -67 19
-118 26 -227 30 -174 6 -252 -9 -373 -71 -68 -34 -92 -42 -106 -34 -9 5 -21 7
-24 3 -4 -4 -2 -10 4 -12 6 -2 19 -9 28 -16 16 -12 15 -15 -8 -50 -14 -21 -26
-42 -26 -47 0 -23 44 -6 105 41 58 44 135 87 135 75 0 -2 -9 -23 -20 -47 -21
-46 -27 -134 -10 -144 6 -3 14 4 19 17 7 19 24 27 82 42 41 10 78 23 83 27 15
14 74 11 79 -3 8 -23 -13 -47 -46 -53 l-32 -6 5 -57 c5 -54 7 -57 34 -60 23
-3 34 4 57 31 36 44 88 63 130 48 16 -5 36 -8 44 -5 20 8 19 -16 0 -63 -18
-42 -7 -65 20 -43 52 43 86 188 62 258 -8 23 -12 42 -8 42 12 0 76 -43 88 -59
18 -24 16 -60 -9 -137 -12 -38 -20 -77 -19 -87 1 -9 -5 -20 -13 -23 -9 -3 -16
-11 -16 -17 0 -6 -23 -35 -52 -64 -29 -29 -48 -53 -42 -53 21 0 85 53 114 95
41 59 130 233 130 252 0 9 8 22 18 29 16 12 13 17 -34 61 -29 26 -62 68 -74
93 -26 53 -113 162 -175 219 -42 38 -44 42 -25 49 28 11 200 -6 285 -28 38
-10 72 -16 74 -14 2 2 -20 15 -50 28 -64 30 -185 60 -322 80 -86 12 -106 19
-165 57 -75 49 -134 91 -174 128 -16 14 -28 20 -28 13 0 -17 114 -114 177
-150 l58 -32 -55 2 c-30 1 -61 7 -68 12 -165 129 -230 273 -318 694 -15 72
-29 130 -31 128 -2 -2 5 -56 16 -120 18 -99 19 -130 11 -213 -16 -158 -45
-265 -126 -463 -106 -259 -115 -286 -121 -366 -5 -63 -2 -78 21 -130 17 -37
52 -84 94 -128 75 -76 54 -74 -54 8 -197 148 -289 404 -295 821 -1 61 -4 97
-5 80 -10 -82 -27 -193 -51 -320 -31 -173 -29 -303 10 -432 13 -45 20 -80 16
-77 -19 12 -99 155 -118 211 -11 34 -27 121 -35 193 -8 73 -17 135 -20 138 -4
3 -7 -28 -8 -69 -2 -117 -3 -124 -11 -127 -18 -8 -26 6 -28 51 -2 26 -7 47
-12 47 -5 0 -6 -7 -3 -16 4 -10 2 -13 -6 -8 -8 5 -9 -3 -5 -29 4 -25 2 -37 -6
-37 -37 1 -42 19 -51 208 -4 83 -2 99 21 150 14 31 29 68 34 82 7 22 7 23 -4
6 -47 -72 -75 -101 -102 -104 -18 -2 -24 -6 -16 -11 9 -6 2 -39 -31 -137 l-44
-129 -160 -7 c-146 -6 -175 -10 -288 -45 -30 -9 139 183 171 195 16 5 62 21
103 35 92 32 220 97 190 97 -20 0 -19 3 13 43 44 53 108 171 142 261 34 91 26
95 -10 5 -34 -83 -104 -194 -170 -267 -44 -49 -142 -107 -215 -128 -23 -6 -21
-3 15 37 82 89 177 255 239 416 40 103 42 115 21 107 -13 -5 -13 0 0 43 33
111 26 121 -19 31 -24 -48 -50 -104 -56 -125 -15 -44 -191 -405 -217 -445 -10
-15 -57 -66 -103 -115 -47 -48 -93 -102 -102 -119 -9 -18 -55 -81 -102 -140
-158 -201 -182 -277 -173 -553 3 -126 11 -194 30 -281 28 -127 26 -182 -9
-235 l-19 -29 -6 54 c-9 78 -29 118 -102 208 -79 97 -113 167 -128 263 -17
109 -5 205 40 333 115 328 149 431 147 433 -5 5 -104 -203 -131 -277 -25 -68
-38 -85 -134 -183 -118 -120 -179 -204 -212 -290 -12 -31 -26 -60 -32 -64 -17
-10 0 139 24 209 19 57 37 90 135 248 19 30 44 87 55 125 37 122 92 236 181
372 87 132 120 187 100 168 -15 -16 -272 -404 -272 -412 -1 -14 -40 -58 -40
-45 0 8 -9 12 -22 10 -15 -2 -22 2 -20 10 1 8 -3 12 -10 10 -32 -11 -57 51
-115 287 -38 157 13 318 189 590 l39 60 -35 -39 c-102 -112 -233 -356 -260
-486 -34 -161 -45 -206 -59 -235 -23 -46 -64 -138 -71 -160 -7 -20 -8 -20 -18
-1 -17 30 -3 247 22 341 47 174 106 299 238 505 70 108 72 111 44 80 -31 -33
-124 -174 -151 -227 -29 -58 -35 -54 -12 8 30 77 92 175 170 268 39 46 71 85
71 88 0 15 -90 -72 -130 -127 -70 -96 -116 -184 -160 -311 -21 -63 -52 -150
-68 -194 -50 -134 -65 -224 -60 -344 4 -88 9 -116 32 -166 34 -75 69 -121 107
-140 27 -14 43 -5 18 11 -6 3 -20 25 -30 48 -22 51 -17 79 37 192 l39 81 32
-66 c18 -36 63 -107 101 -157 57 -76 67 -95 59 -110 -6 -11 -30 -50 -55 -88
-61 -94 -108 -199 -122 -274 -16 -80 -7 -189 19 -239 l19 -38 0 50 c0 123 67
258 196 392 49 52 98 99 108 104 16 9 17 7 7 -18 -20 -53 -39 -165 -39 -231 0
-154 39 -263 132 -373 76 -90 86 -107 94 -165 9 -70 -8 -115 -54 -148 -29 -21
-33 -26 -16 -26 38 0 125 51 150 90 42 64 46 92 25 220 -11 63 -22 140 -26
170 l-6 55 49 -70 c27 -39 63 -98 80 -130 17 -33 51 -89 77 -125 89 -126 112
-284 59 -414 -12 -30 12 -11 47 36 l29 41 0 -60 c0 -118 -55 -205 -137 -218
-62 -10 -174 -45 -230 -71 -113 -54 -187 -166 -204 -311 -6 -47 -8 -99 -5
-114 6 -30 2 -35 -116 -185 -68 -87 -87 -135 -88 -219 l-1 -70 -60 -40 c-73
-48 -186 -167 -223 -235 -15 -27 -36 -93 -47 -147 -12 -54 -32 -127 -46 -163
-46 -124 -63 -173 -63 -187 0 -23 138 -138 262 -220 304 -198 710 -386 991
-459 92 -23 131 -27 406 -37 474 -17 1425 8 1511 40 8 3 31 7 50 8 19 2 35 4
35 5 0 1 9 3 20 5 11 1 43 6 70 10 28 4 53 9 56 11 3 2 41 10 85 19 43 9 114
28 156 42 43 14 85 22 94 19 8 -3 13 -2 10 2 -7 12 231 105 245 96 7 -4 9 -3
6 3 -8 13 20 26 35 16 6 -3 8 -2 5 4 -7 11 180 106 194 97 5 -3 8 -2 7 3 -2 4
2 10 7 12 6 2 15 11 21 19 6 8 16 12 21 9 6 -4 13 0 17 8 3 8 12 15 21 15 8 0
15 5 15 10 0 6 9 10 19 10 11 0 21 4 23 8 7 17 70 54 83 48 9 -3 12 0 8 9 -3
9 3 18 13 22 11 3 54 33 97 65 43 32 83 55 89 52 6 -4 8 -2 5 3 -8 13 167 165
178 155 5 -4 5 -2 2 4 -8 13 56 77 67 67 4 -5 6 -3 4 3 -2 7 19 37 46 69 26
31 64 82 83 113 47 77 43 126 -15 209 -23 32 -55 82 -73 111 l-31 53 35 53
c45 68 80 138 102 205 15 45 17 74 12 160 -10 161 -44 265 -114 343 -22 24
-56 66 -77 95 -52 73 -191 201 -267 246 -92 54 -139 52 -242 -9 -74 -44 -78
-45 -102 -30 -13 9 -80 40 -149 70 -268 117 -276 124 -275 228 0 34 6 80 12
100 l12 37 45 -54 c25 -30 50 -54 56 -54 5 -1 20 -10 32 -21 24 -23 228 -113
243 -108 5 2 -17 22 -49 45 -75 55 -129 127 -153 204 -20 63 -23 98 -13 136 6
20 11 16 63 -39 40 -44 76 -71 126 -95 89 -43 105 -42 55 3 -48 43 -87 121
-96 191 -8 61 9 164 36 228 21 50 161 274 171 275 4 0 12 -13 19 -30 31 -76
163 -163 318 -210 87 -27 115 -21 47 9 -60 26 -109 72 -137 125 -49 95 -64
301 -39 526 l13 115 47 -45 c32 -32 63 -50 104 -63 59 -19 196 -38 210 -30 4
2 -20 18 -53 34 -73 37 -150 120 -189 204 -35 75 -64 184 -91 345 -19 112 -29
159 -47 225 -7 26 74 -51 132 -126 88 -112 135 -217 135 -298 0 -28 2 -32 13
-22 8 8 12 54 12 154 l0 142 -38 70 c-20 39 -71 115 -113 170 -55 71 -98 144
-150 253 -81 169 -134 255 -215 352 -30 36 -60 72 -67 82 -11 14 -7 25 27 77
21 34 45 84 51 112 27 112 -12 267 -104 409 -46 71 -142 178 -151 168 -3 -3 4
-25 15 -49 12 -27 20 -66 20 -101 l0 -58 -63 43 c-35 23 -62 46 -59 51 3 5 -2
6 -12 3 -10 -4 -19 -1 -22 8 -4 8 -12 15 -20 15 -8 0 -14 5 -14 10 0 6 -5 10
-11 10 -6 0 -30 14 -55 30 -24 17 -109 64 -188 104 -135 69 -158 86 -116 86 9
0 25 9 35 20 10 11 21 18 25 15 12 -7 47 37 69 85 30 66 28 140 -4 178 -75 90
-471 159 -770 135z m257 -29 c54 -3 101 -10 104 -15 3 -6 15 -7 26 -3 14 4 18
2 14 -5 -5 -7 1 -11 14 -11 l21 0 -20 -22 c-11 -11 -19 -24 -16 -27 2 -4 -5
-17 -14 -30 -17 -22 -28 -24 -162 -32 -79 -5 -180 -16 -225 -24 -50 -9 -143
-15 -246 -15 -164 0 -176 -2 -338 -46 l-25 -7 25 28 c74 81 240 166 380 195
74 14 265 29 325 24 22 -2 84 -6 137 -10z m104 -199 c49 -9 108 -25 131 -36
75 -36 104 -99 46 -99 -13 0 -61 15 -106 34 -151 62 -247 88 -366 101 l-116
13 161 1 c105 1 192 -4 250 -14z m738 -1402 c0 -14 6 -19 20 -18 27 3 46 -12
40 -30 -3 -8 1 -12 13 -12 14 2 18 -4 16 -28 -2 -21 0 -26 7 -15 7 12 12 12
29 -4 11 -10 23 -27 26 -37 4 -11 10 -17 14 -15 4 3 12 -3 18 -13 10 -16 8
-17 -14 -13 -19 4 -24 1 -21 -9 3 -8 12 -13 20 -11 11 2 17 -10 22 -40 4 -23
12 -46 19 -50 7 -4 3 -6 -11 -5 -12 0 -22 7 -22 14 0 7 -11 13 -25 13 -16 0
-25 6 -25 15 0 8 -4 15 -10 15 -5 0 -10 9 -10 20 0 13 -7 20 -20 20 -11 0 -19
-3 -19 -7 3 -21 -2 -34 -11 -28 -6 4 -8 11 -5 16 4 5 0 9 -7 9 -10 0 -13 10
-10 34 4 31 2 34 -16 29 -27 -7 -40 20 -37 76 2 31 0 39 -7 27 -11 -19 -30
-12 -22 8 3 8 0 17 -7 22 -7 4 -10 3 -6 -4 5 -6 0 -8 -13 -5 -11 3 -20 10 -20
16 0 6 3 7 7 4 3 -4 12 -2 20 4 7 6 22 9 33 6 11 -3 23 0 27 5 3 7 1 8 -5 4
-7 -4 -12 -2 -12 4 0 7 6 10 13 7 6 -2 12 -13 11 -24z m600 -365 c-3 -4 -1 -7
5 -6 16 4 127 -138 157 -200 28 -60 24 -85 -10 -53 -12 12 -26 19 -29 16 -4
-3 -5 -2 -2 2 3 3 -3 12 -13 20 -9 8 -11 12 -4 8 6 -3 12 -4 12 -1 0 3 -14 13
-31 22 -20 10 -28 11 -24 3 5 -8 4 -10 -3 -5 -7 4 -17 17 -24 29 -10 21 -10
21 7 7 17 -14 18 -14 5 10 -7 14 -19 30 -27 35 -7 6 -16 28 -18 49 -3 22 -10
45 -16 53 -6 7 -8 13 -5 13 4 0 1 10 -5 23 -12 22 -12 22 9 3 12 -10 19 -23
16 -28z m-606 -1084 c12 -8 34 -37 47 -64 32 -63 35 -184 7 -258 -51 -133
-226 -318 -373 -393 l-37 -18 -5 27 c-2 15 -7 35 -11 44 -6 12 0 21 24 33 18
10 39 33 52 61 20 40 21 49 10 90 l-12 45 59 82 c32 45 68 97 79 116 l21 35
12 -30 12 -29 7 26 c4 14 24 50 44 80 20 30 36 58 36 64 0 5 -20 -21 -45 -60
-53 -83 -59 -66 -19 52 41 122 47 129 92 97z m-407 -660 c20 -22 24 -34 22
-80 -2 -30 -7 -64 -13 -74 -15 -27 -62 -50 -104 -50 -47 0 -66 28 -66 98 0 50
3 58 39 93 47 48 86 52 122 13z m-2342 -2434 c16 -192 63 -469 106 -625 19
-70 35 -130 35 -134 0 -12 -68 1 -74 14 -13 36 -75 444 -81 537 -11 175 -14
371 -6 362 4 -5 13 -74 20 -154z m109 36 c17 -19 47 -65 68 -103 21 -37 73
-131 117 -208 44 -77 115 -209 159 -292 44 -84 85 -153 92 -153 7 0 31 14 54
31 23 17 81 46 129 65 155 63 350 172 456 256 21 17 39 29 41 27 2 -2 -9 -69
-25 -149 -41 -205 -41 -211 -18 -150 11 30 35 121 54 202 31 136 60 217 71
205 3 -3 -4 -35 -15 -72 -33 -105 -82 -324 -90 -397 -4 -37 -11 -71 -15 -75
-9 -10 -689 -13 -881 -4 l-140 6 -26 90 c-15 50 -38 155 -53 235 -24 137 -66
472 -66 533 l0 28 29 -20 c16 -11 42 -36 59 -55z m1488 -347 c-14 -79 -29
-205 -36 -279 -16 -195 -8 -180 -86 -180 l-66 0 7 42 c18 105 187 579 201 565
2 -2 -7 -69 -20 -148z"/>
<path d="M4088 5300 c11 -19 62 -111 112 -205 110 -204 160 -274 279 -388 93
-90 198 -163 335 -236 97 -51 113 -47 19 5 -195 108 -292 181 -402 304 -98
109 -135 164 -244 360 -47 85 -93 164 -102 175 -10 12 -9 6 3 -15z"/>
<path d="M4891 4075 c-2 -236 -25 -324 -119 -442 -52 -65 -106 -102 -219 -151
-48 -21 -113 -56 -143 -77 l-55 -38 75 7 c156 14 221 47 343 176 127 132 162
223 162 420 0 74 -5 153 -12 175 -6 22 -16 56 -21 75 -8 26 -10 -10 -11 -145z"/>
<path d="M2578 4048 c-54 -6 -98 -14 -98 -19 0 -5 12 -9 28 -9 36 0 14 -15
-53 -35 -65 -20 -84 -32 -68 -43 9 -6 -1 -17 -33 -37 -68 -43 -83 -79 -36 -88
25 -5 35 -19 69 -90 43 -89 98 -159 144 -183 41 -21 46 -17 17 14 -32 34 -64
96 -94 186 -34 99 -32 120 13 151 21 14 42 25 48 25 6 0 10 -31 11 -73 0 -56
7 -86 27 -131 16 -35 32 -56 39 -53 7 2 11 11 9 18 -3 8 -7 71 -9 140 -5 144
-10 135 91 146 57 6 60 5 52 -13 -27 -66 -47 -174 -31 -174 1 0 18 5 36 11 32
12 32 12 26 60 -7 49 -6 49 22 49 15 0 37 -6 47 -14 16 -12 17 -16 6 -30 -7
-9 -20 -16 -27 -16 -8 0 -14 -9 -14 -20 0 -11 4 -20 10 -20 13 0 33 -39 39
-80 5 -26 12 -36 28 -38 17 -2 24 3 28 21 6 21 13 25 46 25 29 1 43 -5 54 -21
12 -17 19 -20 33 -11 18 12 28 37 37 98 l6 38 23 -21 c20 -19 56 -29 56 -15 0
3 -12 29 -26 59 -36 72 -78 121 -125 145 -90 46 -264 66 -431 48z"/>
</g>
</svg>
